<svg width="14" height="14" viewBox="0 0 14 14" fill="none" xmlns="http://www.w3.org/2000/svg">
<path d="M10.5806 11.6021L10.5806 2.39757C10.5803 2.30438 10.5546 2.21303 10.5063 2.13336C10.4579 2.05369 10.3888 1.98871 10.3062 1.94542C10.2237 1.90213 10.1309 1.88217 10.0379 1.88768C9.94487 1.8932 9.85511 1.92398 9.77827 1.97671L3.13055 6.57899C2.85492 6.76973 2.85492 7.22893 3.13055 7.42018L9.77827 12.0225C9.85495 12.0757 9.94476 12.107 10.0379 12.1128C10.1311 12.1186 10.2241 12.0988 10.3068 12.0554C10.3895 12.0121 10.4588 11.9469 10.507 11.867C10.5553 11.7871 10.5808 11.6955 10.5806 11.6021Z" fill="black"/>
</svg>
