<svg width="99" height="99" viewBox="0 0 99 99" fill="none" xmlns="http://www.w3.org/2000/svg">
<path d="M76.9505 39.1254C77.8786 39.126 78.7965 39.3182 79.6469 39.6901C80.4972 40.0619 81.2616 40.6054 81.8921 41.2864C82.5226 41.9674 83.0057 42.7713 83.3111 43.6477C83.6164 44.5241 83.7375 45.4542 83.6668 46.3795H83.673C83.1227 67.0631 66.1584 83.6865 45.3432 83.6865C24.1809 83.6865 7 66.5056 7 45.3432C7 24.2845 24.013 7.16789 45.0323 7.00104L45.28 7L45.3432 20.4719C31.6164 20.4719 20.4719 31.6164 20.4719 45.3432C20.4719 59.0701 31.6164 70.2145 45.3432 70.2145C58.7229 70.2145 69.6487 59.6266 70.1938 46.3795C70.2207 46.2085 70.2145 46.0355 70.2145 45.8614C70.2145 42.1442 73.2333 39.1254 76.9505 39.1254ZM45.2127 7.00104L45.3432 7C49.0605 7 52.0792 10.0188 52.0792 13.736C52.0785 15.5071 51.3805 17.2068 50.1362 18.4672C48.8919 19.7277 47.2013 20.4475 45.4303 20.4709L45.3432 20.4719" fill="#373737"/>
<g filter="url(#filter0_d_411_6398)">
<path d="M45.3432 7C66.5055 7 83.6864 24.1809 83.6864 45.3432C83.6864 66.5056 66.5055 83.6865 45.3432 83.6865C24.5694 83.6865 7.63105 67.1294 7.01756 46.5039L7.01341 46.3795H7.01963C6.94885 45.4542 7.06995 44.5241 7.37534 43.6477C7.68072 42.7713 8.1638 41.9674 8.79432 41.2864C9.42484 40.6054 10.1892 40.0619 11.0395 39.6901C11.8899 39.3182 12.8078 39.126 13.7359 39.1254C14.664 39.126 15.582 39.3182 16.4323 39.6901C17.2826 40.0619 18.047 40.6054 18.6775 41.2864C19.308 41.9674 19.7911 42.7713 20.0965 43.6477C20.4019 44.5241 20.523 45.4542 20.4522 46.3795H20.4926C21.0377 59.6266 31.9635 70.2145 45.3432 70.2145C59.07 70.2145 70.2145 59.0701 70.2145 45.3432C70.2145 31.6702 59.1571 20.559 45.5038 20.4719H45.3432M7.02481 46.4428C7.02171 46.4003 7.02274 46.422 7.02481 46.4428V46.4428Z" fill="#FFCE40"/>
</g>
<circle cx="45.3434" cy="13.736" r="6.73597" fill="#FFCE40"/>
<defs>
<filter id="filter0_d_411_6398" x="0.782178" y="0.782178" width="97.4116" height="97.4126" filterUnits="userSpaceOnUse" color-interpolation-filters="sRGB">
<feFlood flood-opacity="0" result="BackgroundImageFix"/>
<feColorMatrix in="SourceAlpha" type="matrix" values="0 0 0 0 0 0 0 0 0 0 0 0 0 0 0 0 0 0 127 0" result="hardAlpha"/>
<feOffset dx="4.14521" dy="4.14521"/>
<feGaussianBlur stdDeviation="5.18152"/>
<feColorMatrix type="matrix" values="0 0 0 0 0.321902 0 0 0 0 0.296593 0 0 0 0 0.10497 0 0 0 1 0"/>
<feBlend mode="normal" in2="BackgroundImageFix" result="effect1_dropShadow_411_6398"/>
<feBlend mode="normal" in="SourceGraphic" in2="effect1_dropShadow_411_6398" result="shape"/>
</filter>
</defs>
</svg>
