<svg width="442" height="160" viewBox="0 0 442 160" fill="none" xmlns="http://www.w3.org/2000/svg">
<foreignObject x="-64" y="-64" width="569.227" height="288"><div xmlns="http://www.w3.org/1999/xhtml" style="backdrop-filter:blur(32px);clip-path:url(#bgblur_0_481_5227_clip_path);height:100%;width:100%"></div></foreignObject><g data-figma-bg-blur-radius="64">
<mask id="path-1-inside-1_481_5227" fill="white">
<path d="M36.7379 160C16.448 160 -0.000335496 143.552 -0.00033727 123.262L-0.000344834 36.7383C-0.000346608 16.4483 16.448 3.71353e-05 36.7379 3.53615e-05L429.261 1.04603e-06V1.04603e-06C444.566 5.10254e-05 443.541 19.0546 434.577 31.4591C424.77 45.0299 418.99 61.7024 418.99 79.7256C418.99 97.7213 424.752 114.371 434.532 127.931C443.652 140.575 444.852 160 429.261 160V160L36.7379 160Z"/>
</mask>
<path d="M36.7379 160C16.448 160 -0.000335496 143.552 -0.00033727 123.262L-0.000344834 36.7383C-0.000346608 16.4483 16.448 3.71353e-05 36.7379 3.53615e-05L429.261 1.04603e-06V1.04603e-06C444.566 5.10254e-05 443.541 19.0546 434.577 31.4591C424.77 45.0299 418.99 61.7024 418.99 79.7256C418.99 97.7213 424.752 114.371 434.532 127.931C443.652 140.575 444.852 160 429.261 160V160L36.7379 160Z" fill="#1D2127" fill-opacity="0.7"/>
<path d="M418.99 79.7256L417.99 79.7256L417.99 79.7256L418.99 79.7256ZM434.577 31.4591L433.766 30.8734L434.577 31.4591ZM36.7379 160L36.7379 159C17.0003 159 0.999664 142.999 0.999663 123.262L-0.00033727 123.262L-1.00034 123.262C-1.00034 144.104 15.8957 161 36.7379 161L36.7379 160ZM-0.00033727 123.262L0.999663 123.262L0.999655 36.7383L-0.000344834 36.7383L-1.00034 36.7383L-1.00034 123.262L-0.00033727 123.262ZM-0.000344834 36.7383L0.999655 36.7383C0.999653 17.0006 17.0002 1.00004 36.7379 1.00004L36.7379 3.53615e-05L36.7379 -0.999965C15.8957 -0.999963 -1.00035 15.896 -1.00034 36.7383L-0.000344834 36.7383ZM36.7379 3.53615e-05L36.7379 1.00004L429.261 1L429.261 1.04603e-06L429.261 -0.999999L36.7379 -0.999965L36.7379 3.53615e-05ZM434.577 31.4591L433.766 30.8734C423.84 44.6089 417.99 61.4852 417.99 79.7256L418.99 79.7256L419.99 79.7256C419.99 61.9197 425.699 45.4508 435.387 32.0448L434.577 31.4591ZM418.99 79.7256L417.99 79.7256C417.99 97.9382 423.822 114.791 433.721 128.516L434.532 127.931L435.343 127.346C425.682 113.951 419.99 97.5044 419.99 79.7256L418.99 79.7256ZM429.261 160L429.261 159L36.7379 159L36.7379 160L36.7379 161L429.261 161L429.261 160ZM434.532 127.931L433.721 128.516C438.174 134.69 440.652 142.477 440.166 148.628C439.924 151.692 438.955 154.27 437.223 156.075C435.508 157.862 432.939 159 429.261 159L429.261 160L429.261 161C433.379 161 436.507 159.71 438.666 157.46C440.809 155.227 441.893 152.159 442.16 148.786C442.691 142.064 440.01 133.816 435.343 127.346L434.532 127.931ZM429.261 1.04603e-06L429.261 1C432.868 1.00001 435.396 2.11507 437.09 3.8665C438.801 5.63478 439.769 8.16108 440.024 11.1625C440.535 17.1897 438.14 24.8216 433.766 30.8734L434.577 31.4591L435.387 32.0448C439.978 25.6921 442.577 17.5945 442.016 10.9933C441.735 7.68051 440.649 4.66787 438.528 2.47576C436.39 0.266799 433.307 -0.999986 429.261 -0.999999L429.261 1.04603e-06Z" fill="url(#paint0_linear_481_5227)" mask="url(#path-1-inside-1_481_5227)"/>
</g>
<defs>
<clipPath id="bgblur_0_481_5227_clip_path" transform="translate(64 64)"><path d="M36.7379 160C16.448 160 -0.000335496 143.552 -0.00033727 123.262L-0.000344834 36.7383C-0.000346608 16.4483 16.448 3.71353e-05 36.7379 3.53615e-05L429.261 1.04603e-06V1.04603e-06C444.566 5.10254e-05 443.541 19.0546 434.577 31.4591C424.77 45.0299 418.99 61.7024 418.99 79.7256C418.99 97.7213 424.752 114.371 434.532 127.931C443.652 140.575 444.852 160 429.261 160V160L36.7379 160Z"/>
</clipPath><linearGradient id="paint0_linear_481_5227" x1="420.999" y1="87.5" x2="70.9991" y2="87.5" gradientUnits="userSpaceOnUse">
<stop stop-color="#FFCE40"/>
<stop offset="1" stop-color="#69778D" stop-opacity="0"/>
</linearGradient>
</defs>
</svg>
