<svg width="16" height="16" viewBox="0 0 16 16" fill="none" xmlns="http://www.w3.org/2000/svg">
<path d="M12.6677 13.9999L12.6677 1.99994C12.6673 1.87845 12.6338 1.75936 12.5708 1.65549C12.5078 1.55162 12.4176 1.46691 12.31 1.41048C12.2024 1.35404 12.0815 1.32802 11.9602 1.33521C11.8389 1.3424 11.7219 1.38253 11.6217 1.45128L2.95505 7.45128C2.59571 7.69994 2.59571 8.29861 2.95505 8.54794L11.6217 14.5479C11.7217 14.6174 11.8388 14.6581 11.9602 14.6657C12.0817 14.6733 12.203 14.6474 12.3108 14.5909C12.4186 14.5344 12.5089 14.4495 12.5718 14.3453C12.6347 14.2411 12.6679 14.1217 12.6677 13.9999Z" fill="white"/>
</svg>
