<svg width="24" height="24" viewBox="0 0 24 24" fill="none" xmlns="http://www.w3.org/2000/svg">
<g id="Frame 48100270">
<path id="union-1" fill-rule="evenodd" clip-rule="evenodd" d="M7.5 1.91992C8.05228 1.91992 8.5 2.34632 8.5 2.8723V3.82468H15.5V2.8723C15.5 2.34632 15.9477 1.91992 16.5 1.91992C17.0523 1.91992 17.5 2.34632 17.5 2.8723V3.8482C20.0267 4.08711 22 6.11738 22 8.58659V17.158C22 19.7879 19.7614 21.9199 17 21.9199H7C4.23858 21.9199 2 19.7879 2 17.158V8.58659C2 6.11738 3.97334 4.08711 6.5 3.8482V2.8723C6.5 2.34632 6.94772 1.91992 7.5 1.91992ZM4.17071 7.63421H19.8293C19.4175 6.5245 18.3062 5.72945 17 5.72945H7C5.69378 5.72945 4.58254 6.5245 4.17071 7.63421ZM20 9.53897H4V17.158C4 18.736 5.34315 20.0152 7 20.0152H17C18.6569 20.0152 20 18.736 20 17.158V9.53897ZM16.7071 11.2465C17.0976 11.6184 17.0976 12.2214 16.7071 12.5934L11.7071 17.3553C11.3166 17.7272 10.6834 17.7272 10.2929 17.3553L7.79289 14.9743C7.40237 14.6024 7.40237 13.9994 7.79289 13.6274C8.18342 13.2555 8.81658 13.2555 9.20711 13.6274L11 15.335L15.2929 11.2465C15.6834 10.8746 16.3166 10.8746 16.7071 11.2465Z" fill="#8C8989"/>
</g>
</svg>
