<svg width="76" height="50" viewBox="0 0 76 50" fill="none" xmlns="http://www.w3.org/2000/svg">
<g filter="url(#filter0_d_411_6452)">
<g filter="url(#filter1_d_411_6452)">
<path fill-rule="evenodd" clip-rule="evenodd" d="M38 33C38 33.553 38.447 34 39 34H42C43.061 34 44.078 33.579 44.828 32.829C45.578 32.079 46 31.061 46 30C46 29.426 46 29 46 29C46 28.448 45.552 28 45 28H39C38.447 28 38 28.448 38 29V33ZM35 34C35.552 34 36 33.553 36 33V23C36 22.448 35.552 22 35 22H29C28.447 22 28 22.448 28 23V30C28 31.061 28.421 32.079 29.171 32.829C29.921 33.579 30.939 34 32 34H35ZM44 30H40V32H42C42.53 32 43.039 31.79 43.414 31.415C43.789 31.04 44 30.531 44 30ZM34 32V24H30V30C30 30.531 30.21 31.04 30.586 31.415C30.961 31.79 31.469 32 32 32H34ZM39 14C38.447 14 38 14.448 38 15V25C38 25.553 38.447 26 39 26H45C45.552 26 46 25.553 46 25V18C46 16.94 45.578 15.922 44.828 15.172C44.078 14.422 43.061 14 42 14H39ZM40 16V24H44V18C44 17.47 43.789 16.961 43.414 16.586C43.039 16.211 42.53 16 42 16H40ZM36 15C36 14.448 35.552 14 35 14H32C30.939 14 29.921 14.422 29.171 15.172C28.421 15.922 28 16.94 28 18V19C28 19.553 28.447 20 29 20H35C35.552 20 36 19.553 36 19V15ZM34 16H32C31.469 16 30.961 16.211 30.586 16.586C30.21 16.961 30 17.47 30 18H34V16Z" fill="white"/>
</g>
</g>
<defs>
<filter id="filter0_d_411_6452" x="-2" y="-16" width="78" height="80" filterUnits="userSpaceOnUse" color-interpolation-filters="sRGB">
<feFlood flood-opacity="0" result="BackgroundImageFix"/>
<feColorMatrix in="SourceAlpha" type="matrix" values="0 0 0 0 0 0 0 0 0 0 0 0 0 0 0 0 0 0 127 0" result="hardAlpha"/>
<feOffset/>
<feGaussianBlur stdDeviation="15"/>
<feComposite in2="hardAlpha" operator="out"/>
<feColorMatrix type="matrix" values="0 0 0 0 1 0 0 0 0 1 0 0 0 0 1 0 0 0 1 0"/>
<feBlend mode="normal" in2="BackgroundImageFix" result="effect1_dropShadow_411_6452"/>
<feBlend mode="normal" in="SourceGraphic" in2="effect1_dropShadow_411_6452" result="shape"/>
</filter>
<filter id="filter1_d_411_6452" x="24" y="14" width="26" height="28" filterUnits="userSpaceOnUse" color-interpolation-filters="sRGB">
<feFlood flood-opacity="0" result="BackgroundImageFix"/>
<feColorMatrix in="SourceAlpha" type="matrix" values="0 0 0 0 0 0 0 0 0 0 0 0 0 0 0 0 0 0 127 0" result="hardAlpha"/>
<feOffset dy="4"/>
<feGaussianBlur stdDeviation="2"/>
<feComposite in2="hardAlpha" operator="out"/>
<feColorMatrix type="matrix" values="0 0 0 0 0 0 0 0 0 0 0 0 0 0 0 0 0 0 0.25 0"/>
<feBlend mode="normal" in2="BackgroundImageFix" result="effect1_dropShadow_411_6452"/>
<feBlend mode="normal" in="SourceGraphic" in2="effect1_dropShadow_411_6452" result="shape"/>
</filter>
</defs>
</svg>
