<svg width="24" height="24" viewBox="0 0 24 24" fill="none" xmlns="http://www.w3.org/2000/svg">
<ellipse cx="11.3984" cy="12.0001" rx="9" ry="8.4" fill="white"/>
<path fill-rule="evenodd" clip-rule="evenodd" d="M12 24C18.6276 24 24 18.6276 24 12C24 5.3724 18.6276 0 12 0C5.3724 0 0 5.3724 0 12C0 18.6276 5.3724 24 12 24ZM5.7 12C5.7 11.6936 5.7212 11.3936 5.7636 11.1H9.6C9.8387 11.1 10.0676 11.0052 10.2364 10.8364C10.4052 10.6676 10.5 10.4387 10.5 10.2C10.5 9.96131 10.4052 9.73239 10.2364 9.5636C10.0676 9.39482 9.8387 9.3 9.6 9.3H6.306C6.67874 8.51344 7.21041 7.81265 7.86751 7.24183C8.5246 6.671 9.29285 6.24253 10.1238 5.98344C10.9547 5.72434 11.8304 5.64025 12.6954 5.73645C13.5605 5.83266 14.3963 6.10707 15.15 6.5424C15.2524 6.60243 15.3657 6.64161 15.4832 6.65769C15.6008 6.67377 15.7205 6.66643 15.8352 6.63609C15.95 6.60575 16.0576 6.55302 16.1519 6.48092C16.2461 6.40882 16.3252 6.31878 16.3846 6.21599C16.4439 6.11321 16.4824 5.99969 16.4977 5.88199C16.513 5.76429 16.5048 5.64472 16.4737 5.53018C16.4426 5.41563 16.3892 5.30837 16.3165 5.21456C16.2437 5.12076 16.1532 5.04226 16.05 4.9836C15.0199 4.38951 13.8717 4.02939 12.6869 3.9288C11.502 3.82822 10.3095 3.98963 9.19403 4.40158C8.07855 4.81353 7.06739 5.46593 6.23231 6.31248C5.39723 7.15903 4.75869 8.179 4.362 9.3H3.6C3.36131 9.3 3.13239 9.39482 2.9636 9.5636C2.79482 9.73239 2.7 9.96131 2.7 10.2C2.7 10.4387 2.79482 10.6676 2.9636 10.8364C3.13239 11.0052 3.36131 11.1 3.6 11.1H3.9492C3.88282 11.6982 3.88282 12.3018 3.9492 12.9H3.6C3.36131 12.9 3.13239 12.9948 2.9636 13.1636C2.79482 13.3324 2.7 13.5613 2.7 13.8C2.7 14.0387 2.79482 14.2676 2.9636 14.4364C3.13239 14.6052 3.36131 14.7 3.6 14.7H4.3608C4.75755 15.8212 5.39625 16.8414 6.23155 17.6881C7.06686 18.5347 8.0783 19.1872 9.19408 19.599C10.3099 20.0109 11.5026 20.1721 12.6877 20.0712C13.8728 19.9703 15.0211 19.6098 16.0512 19.0152C16.1564 18.9575 16.249 18.8795 16.3235 18.7855C16.3981 18.6916 16.4531 18.5837 16.4854 18.4682C16.5176 18.3526 16.5265 18.2318 16.5114 18.1129C16.4963 17.9939 16.4576 17.8791 16.3976 17.7753C16.3375 17.6715 16.2573 17.5807 16.1617 17.5083C16.066 17.436 15.9569 17.3834 15.8407 17.3538C15.7244 17.3243 15.6035 17.3182 15.4849 17.336C15.3662 17.3538 15.2524 17.3952 15.15 17.4576C14.3963 17.8929 13.5605 18.1673 12.6954 18.2635C11.8304 18.3598 10.9547 18.2757 10.1238 18.0166C9.29285 17.7575 8.5246 17.329 7.86751 16.7582C7.21041 16.1874 6.67874 15.4866 6.306 14.7H9.6C9.8387 14.7 10.0676 14.6052 10.2364 14.4364C10.4052 14.2676 10.5 14.0387 10.5 13.8C10.5 13.5613 10.4052 13.3324 10.2364 13.1636C10.0676 12.9948 9.8387 12.9 9.6 12.9H5.7636C5.71984 12.602 5.69858 12.3012 5.7 12Z" fill="#1AAAF1"/>
</svg>
