<svg width="18" height="18" viewBox="0 0 18 18" fill="none" xmlns="http://www.w3.org/2000/svg">
<path d="M2.99805 15.75V3.75C2.99805 3.3375 3.14505 2.9845 3.43905 2.691C3.73305 2.3975 4.08605 2.2505 4.49805 2.25H8.99805C9.41055 2.25 9.7638 2.397 10.0578 2.691C10.3518 2.985 10.4985 3.338 10.498 3.75V9H11.248C11.6605 9 12.0138 9.147 12.3078 9.441C12.6018 9.735 12.7485 10.088 12.748 10.5V13.875C12.748 14.0875 12.82 14.2657 12.964 14.4097C13.108 14.5537 13.286 14.6255 13.498 14.625C13.71 14.6245 13.8883 14.5525 14.0328 14.409C14.1773 14.2655 14.249 14.0875 14.248 13.875V8.475C14.1355 8.5375 14.0168 8.57825 13.8918 8.59725C13.7668 8.61625 13.6355 8.6255 13.498 8.625C12.973 8.625 12.5293 8.44375 12.1668 8.08125C11.8043 7.71875 11.623 7.275 11.623 6.75C11.623 6.35 11.7325 5.99075 11.9515 5.67225C12.1705 5.35375 12.461 5.1255 12.823 4.9875L11.248 3.4125L12.0355 2.625L14.8105 5.325C14.998 5.5125 15.1388 5.73125 15.2328 5.98125C15.3268 6.23125 15.3735 6.4875 15.373 6.75V13.875C15.373 14.4 15.1918 14.8438 14.8293 15.2062C14.4668 15.5687 14.023 15.75 13.498 15.75C12.973 15.75 12.5293 15.5687 12.1668 15.2062C11.8043 14.8438 11.623 14.4 11.623 13.875V10.125H10.498V15.75H2.99805ZM4.49805 7.5H8.99805V3.75H4.49805V7.5ZM13.498 7.5C13.7105 7.5 13.8888 7.428 14.0328 7.284C14.1768 7.14 14.2485 6.962 14.248 6.75C14.2475 6.538 14.1755 6.36 14.032 6.216C13.8885 6.072 13.7105 6 13.498 6C13.2855 6 13.1075 6.072 12.964 6.216C12.8205 6.36 12.7485 6.538 12.748 6.75C12.7475 6.962 12.8195 7.14025 12.964 7.28475C13.1085 7.42925 13.2865 7.501 13.498 7.5Z" fill="#989898"/>
</svg>
