<svg width="24" height="24" viewBox="0 0 24 24" fill="none" xmlns="http://www.w3.org/2000/svg">
<circle cx="12.0015" cy="11.9995" r="8.39994" fill="white"/>
<path d="M17.9999 1.60786C19.8241 2.66108 21.3389 4.17593 22.3922 6.00016C23.4454 7.8244 23.9998 9.89373 23.9998 12.0002C23.9998 14.1066 23.4453 16.1759 22.3921 18.0001C21.3388 19.8244 19.824 21.3392 17.9997 22.3924C16.1755 23.4456 14.1062 24 11.9997 24C9.89328 24 7.82397 23.4455 5.99976 22.3922C4.17555 21.339 2.66073 19.8241 1.60755 17.9998C0.554372 16.1756 -5.35072e-05 14.1062 3.87315e-09 11.9998L0.0060001 11.611C0.0732033 9.53859 0.676252 7.51897 1.75635 5.74902C2.83646 3.97907 4.35675 2.5192 6.16903 1.51172C7.9813 0.504243 10.0237 -0.0164528 12.0971 0.000396292C14.1705 0.0172454 16.2042 0.571064 17.9999 1.60786ZM13.1999 4.79984C12.2451 4.79984 11.3295 5.17912 10.6543 5.85424C9.97921 6.52937 9.59993 7.44504 9.59993 8.39981V10.7998H8.39994C8.10602 10.7998 7.82234 10.9077 7.6027 11.103C7.38306 11.2984 7.24274 11.5675 7.20835 11.8594L7.19995 11.9998C7.19995 12.318 7.32638 12.6233 7.55142 12.8483C7.77646 13.0733 8.08168 13.1998 8.39994 13.1998H9.59993V14.3998C9.60015 14.6702 9.50901 14.9328 9.3413 15.1449C9.17358 15.3571 8.93912 15.5064 8.67594 15.5686L8.54034 15.5926L8.39994 15.5998C6.85555 15.5998 6.80155 17.8365 8.24034 17.9913L8.39994 17.9997H15.5999C15.9181 17.9997 16.2234 17.8733 16.4484 17.6483C16.6735 17.4232 16.7999 17.118 16.7999 16.7997L16.7915 16.6593C16.7571 16.3675 16.6168 16.0983 16.3971 15.903C16.1775 15.7077 15.8938 15.5998 15.5999 15.5998H11.7947L11.8523 15.4222C11.9504 15.0902 12.0001 14.7459 11.9999 14.3998V13.1998H13.1999C13.4938 13.1997 13.7775 13.0918 13.9971 12.8965C14.2168 12.7012 14.3571 12.4321 14.3915 12.1402L14.3999 11.9998C14.3999 11.6815 14.2735 11.3763 14.0484 11.1513C13.8234 10.9262 13.5182 10.7998 13.1999 10.7998H11.9999V8.39981C12 8.10589 12.1079 7.82221 12.3032 7.60257C12.4985 7.38293 12.7676 7.24261 13.0595 7.20822L13.1999 7.19982C13.4938 7.19986 13.7775 7.30777 13.9971 7.50307C14.2168 7.69838 14.3571 7.96751 14.3915 8.25941L14.3999 8.39981C14.3999 8.71807 14.5263 9.02329 14.7514 9.24833C14.9764 9.47337 15.2816 9.5998 15.5999 9.5998C15.9181 9.5998 16.2234 9.47337 16.4484 9.24833C16.6735 9.02329 16.7999 8.71807 16.7999 8.39981C16.7999 7.44504 16.4206 6.52937 15.7455 5.85424C15.0703 5.17912 14.1547 4.79984 13.1999 4.79984Z" fill="#FFB922"/>
</svg>
