<svg width="24" height="24" viewBox="0 0 24 24" fill="none" xmlns="http://www.w3.org/2000/svg">
<path fill-rule="evenodd" clip-rule="evenodd" d="M3 21.6407H21C21.552 21.6407 22 21.2 22 20.657C22 20.114 21.552 19.6733 21 19.6733H3C2.448 19.6733 2 20.114 2 20.657C2 21.2 2.448 21.6407 3 21.6407ZM7 10.8203H6.366C5.059 10.8203 4 9.7786 4 8.49295C4 8.49196 4 8.49196 4 8.49098C4 7.78274 4.347 7.11876 4.933 6.70759C6.549 5.57243 11.419 2.15025 11.419 2.15025C11.766 1.9063 12.234 1.9063 12.581 2.15025C12.581 2.15025 17.451 5.57243 19.067 6.70759C19.653 7.11876 20 7.78274 20 8.49098V8.49295C20 9.7786 18.941 10.8203 17.634 10.8203H17V15.7387H19C19.552 15.7387 20 16.1793 20 16.7223C20 17.2653 19.552 17.706 19 17.706H5C4.448 17.706 4 17.2653 4 16.7223C4 16.1793 4.448 15.7387 5 15.7387H7V10.8203ZM9 10.8203V15.7387H11V10.8203H9ZM13 10.8203V15.7387H15V10.8203H13ZM12 4.15988L6.095 8.30802C6.036 8.35032 6 8.41819 6 8.49098V8.49295C6 8.69165 6.164 8.85297 6.366 8.85297H17.634C17.836 8.85297 18 8.69165 18 8.49295V8.49098C18 8.41819 17.964 8.35032 17.905 8.30802L12 4.15988Z" fill="#CED2DA"/>
</svg>
