<svg width="24" height="24" viewBox="0 0 24 24" fill="none" xmlns="http://www.w3.org/2000/svg">
<g id="maximize">
<path id="Icon (Stroke)" fill-rule="evenodd" clip-rule="evenodd" d="M14.75 3.99639C14.75 3.58255 15.0858 3.24707 15.5 3.24707H20C20.4142 3.24707 20.75 3.58255 20.75 3.99639V8.4923C20.75 8.90614 20.4142 9.24162 20 9.24162C19.5858 9.24162 19.25 8.90614 19.25 8.4923V5.8054L14.5303 10.5208C14.2374 10.8134 13.7626 10.8134 13.4697 10.5208C13.1768 10.2282 13.1768 9.75372 13.4697 9.46109L18.1893 4.74571H15.5C15.0858 4.74571 14.75 4.41023 14.75 3.99639ZM10.5303 13.4575C10.8232 13.7501 10.8232 14.2245 10.5303 14.5172L5.81066 19.2325H8.5C8.91421 19.2325 9.25 19.568 9.25 19.9819C9.25 20.3957 8.91421 20.7312 8.5 20.7312H4C3.80109 20.7312 3.61032 20.6522 3.46967 20.5117C3.32902 20.3712 3.25 20.1806 3.25 19.9819L3.25 15.4859C3.25 15.0721 3.58579 14.7366 4 14.7366C4.41421 14.7366 4.75 15.0721 4.75 15.4859L4.75 18.1728L9.46967 13.4575C9.76256 13.1648 10.2374 13.1648 10.5303 13.4575Z" fill="#A1A1A1"/>
</g>
</svg>
