<svg width="62" height="62" viewBox="0 0 62 62" fill="none" xmlns="http://www.w3.org/2000/svg">
<rect width="62" height="62" rx="31" fill="white"/>
<path d="M52.2026 25.4142C50.0372 22.0253 45.9387 20.1315 41.9528 20.8019C39.8045 21.1641 38.1088 22.4242 36.489 23.7822C35.8846 24.2887 35.29 24.8099 34.6881 25.3041C33.9394 25.9183 32.5178 27.105 30.9518 28.4189C30.2789 27.866 29.5742 27.291 28.9478 26.7747C28.1575 26.1263 27.4871 25.5757 27.1518 25.3041C24.9375 23.4886 22.8405 21.2962 19.8896 20.8019C15.9037 20.1315 11.8028 22.0253 9.6398 25.4142C9.11862 26.229 8.71978 27.1172 8.44818 28.0421C8.17659 28.9719 8.03711 29.9384 8.03711 30.9098C8.03711 36.0873 12.0817 40.5749 17.2348 41.0985C20.2126 41.4019 23.2516 40.2201 25.4195 38.1965C27.1763 36.5571 29.0408 35.0474 30.9077 33.5377C31.3824 33.9341 31.9036 34.3697 32.4321 34.8101C33.7852 35.9405 35.1873 37.1077 35.9825 37.761C39.3175 40.4941 43.1053 42.1213 47.353 40.4232C50.9229 38.9966 53.4578 35.5809 53.771 31.7466C53.7931 31.4677 53.8053 31.1888 53.8053 30.9098C53.8053 28.9695 53.2474 27.0487 52.2026 25.4142ZM24.1031 34.2082C22.52 35.6102 20.5111 37.1126 18.2771 37.1126C17.8147 37.1126 17.3645 37.0612 16.9314 36.9633C14.1567 36.3467 12.0744 33.8681 12.0744 30.9098C12.0744 28.8007 13.3052 26.7942 15.04 25.6442C16.1092 24.9371 17.1981 24.7071 18.2674 24.8001C20.1025 24.9567 21.8764 26.0602 23.3837 27.3056C23.8217 27.6678 24.6536 28.3529 25.6079 29.1408C26.3346 29.7402 27.1274 30.3935 27.8737 31.0102C25.9798 32.6079 24.3869 33.9561 24.1006 34.2106L24.1031 34.2082ZM44.4217 37.0514C42.8948 37.301 41.3411 36.9168 40.1201 35.9675C39.0826 35.1624 37.4066 33.7531 35.8137 32.4097C35.2093 31.8984 34.6196 31.4016 34.0789 30.9465C35.5372 29.7305 36.9955 28.5168 38.4587 27.3056C38.5737 27.2102 38.6911 27.1148 38.811 27.0218C40.24 25.8963 41.8818 24.9444 43.575 24.8001C44.6443 24.7071 45.7332 24.9371 46.8024 25.6442C48.5372 26.7918 49.768 28.8007 49.768 30.9074C49.768 33.9194 47.3652 36.5669 44.4217 37.049V37.0514Z" fill="url(#paint0_linear_519_6258)"/>
<path d="M44.6076 20.7137C41.6298 20.4103 38.5908 21.5921 36.4229 23.6157C35.3145 24.6507 31.61 27.8316 28.8524 30.1854C28.5221 30.4644 28.1942 30.7409 27.8761 31.0076C25.9822 32.6054 24.3894 33.9536 24.1031 34.208C22.52 35.6101 20.5111 37.1124 18.2771 37.1124C17.8147 37.1124 17.3645 37.0611 16.9314 36.9632C14.7708 37.1296 12.8647 36.4542 10.7384 34.2986C9.03053 32.5662 8.54606 29.9848 8.44818 28.042C8.17659 28.9718 8.03711 29.9383 8.03711 30.9097C8.03711 36.0872 12.0817 40.5747 17.2348 41.0983C20.2126 41.4018 23.2516 40.2199 25.4195 38.1964C26.2636 37.4085 27.1323 36.6524 28.0131 35.911C28.1012 35.8376 28.1942 35.7593 28.2872 35.6786C29.1534 34.9568 30.0269 34.2472 30.9053 33.5376C31.6981 32.8965 32.4908 32.2579 33.2763 31.607C33.3839 31.519 33.4916 31.4284 33.5993 31.3379C33.7583 31.2058 33.9174 31.0736 34.074 30.9439C35.5323 29.7279 36.9906 28.5142 38.4538 27.303C38.5688 27.2076 38.6863 27.1122 38.8062 27.0192C38.8062 27.0192 41.9748 24.2616 44.9086 24.8464C47.0691 24.68 48.9752 25.3554 51.1015 27.511C52.8094 29.2434 53.2939 31.8248 53.3918 33.7676C53.6634 32.8378 53.8028 31.8713 53.8028 30.8999C53.8028 25.7224 49.7582 21.2349 44.6052 20.7113L44.6076 20.7137Z" fill="url(#paint1_linear_519_6258)"/>
<defs>
<linearGradient id="paint0_linear_519_6258" x1="54.8061" y1="30.9074" x2="6.87731" y2="30.9074" gradientUnits="userSpaceOnUse">
<stop stop-color="#120097"/>
<stop offset="0.11" stop-color="#3300BC"/>
<stop offset="0.21" stop-color="#4D00D9"/>
<stop offset="0.31" stop-color="#6000EE"/>
<stop offset="0.41" stop-color="#6B00FA"/>
<stop offset="0.5" stop-color="#6F00FF"/>
<stop offset="0.59" stop-color="#6B00FA"/>
<stop offset="0.69" stop-color="#6000EE"/>
<stop offset="0.79" stop-color="#4D00D9"/>
<stop offset="0.89" stop-color="#3300BC"/>
<stop offset="0.99" stop-color="#120097"/>
<stop offset="1" stop-color="#0F0094"/>
</linearGradient>
<linearGradient id="paint1_linear_519_6258" x1="10.1292" y1="36.5888" x2="54.4659" y2="24.472" gradientUnits="userSpaceOnUse">
<stop stop-color="#9194FC"/>
<stop offset="0.09" stop-color="#7067D6"/>
<stop offset="0.17" stop-color="#5542B6"/>
<stop offset="0.26" stop-color="#40259E"/>
<stop offset="0.34" stop-color="#31108C"/>
<stop offset="0.42" stop-color="#280482"/>
<stop offset="0.5" stop-color="#25007F"/>
<stop offset="0.58" stop-color="#280482"/>
<stop offset="0.66" stop-color="#31108C"/>
<stop offset="0.74" stop-color="#40259E"/>
<stop offset="0.83" stop-color="#5542B6"/>
<stop offset="0.91" stop-color="#7067D6"/>
<stop offset="0.99" stop-color="#9194FC"/>
<stop offset="1" stop-color="#9498FF"/>
</linearGradient>
</defs>
</svg>
