<svg width="24" height="24" viewBox="0 0 24 24" fill="none" xmlns="http://www.w3.org/2000/svg">
<circle cx="12" cy="12" r="10.5" fill="white"/>
<path d="M12 0C5.37225 0 0 5.37225 0 12C0 18.6278 5.37225 24 12 24C18.6278 24 24 18.6278 24 12C24 5.37225 18.6278 0 12 0ZM8.268 5.01412C8.50209 4.97536 8.74242 5.01505 8.95162 5.127L12.3004 7.07381C12.4545 7.15425 12.5831 7.2763 12.6714 7.42611C12.7596 7.57592 12.8042 7.74748 12.7999 7.92131V9.23287L11.2382 10.1638V8.81063C11.2326 8.63777 11.183 8.46919 11.0941 8.32085C11.0052 8.17251 10.8799 8.04932 10.7301 7.96294L8.91 6.94687C8.75376 6.86324 8.57928 6.81947 8.40206 6.81947C8.22484 6.81947 8.05037 6.86324 7.89412 6.94687L6.07406 7.96275C5.9184 8.04215 5.78819 8.16371 5.69831 8.31357C5.60843 8.46343 5.56249 8.63554 5.56575 8.81025V10.9243C5.57132 11.0972 5.62091 11.2657 5.70983 11.4141C5.79874 11.5624 5.92405 11.6856 6.07388 11.772L7.89412 12.8312C8.05047 12.9145 8.22491 12.9581 8.40206 12.9581C8.57922 12.9581 8.75366 12.9145 8.91 12.8312L11.2001 11.4761L12.7999 10.587L15.09 9.23269C15.2463 9.14937 15.4208 9.10579 15.5979 9.10579C15.7751 9.10579 15.9495 9.14937 16.1059 9.23269L19.4919 11.1784C19.6476 11.2575 19.7779 11.3789 19.8678 11.5287C19.9577 11.6785 20.0036 11.8505 20.0002 12.0251V15.9626C19.9948 16.1348 19.9457 16.3027 19.8575 16.4506C19.7694 16.5986 19.645 16.7217 19.4963 16.8084L16.1104 18.7556C15.954 18.8392 15.7794 18.883 15.6021 18.883C15.4247 18.883 15.2501 18.8392 15.0938 18.7556L11.7077 16.8094C11.5522 16.7299 11.4221 16.6083 11.3324 16.4584C11.2426 16.3086 11.1968 16.1365 11.2001 15.9619V14.6081L12.72 13.7197V15.0791C12.7258 15.2518 12.7755 15.4201 12.8644 15.5682C12.9533 15.7162 13.0785 15.8392 13.2281 15.9255L15.0484 16.9414C15.2046 17.025 15.3791 17.0688 15.5563 17.0688C15.7335 17.0688 15.908 17.025 16.0643 16.9414L17.8843 15.8839C18.0397 15.8045 18.1696 15.683 18.2593 15.5334C18.3491 15.3838 18.395 15.2119 18.3919 15.0375V12.9632C18.3863 12.7904 18.3368 12.6219 18.248 12.4736C18.1592 12.3253 18.034 12.2021 17.8843 12.1157L16.0643 11.1C15.9079 11.0167 15.7335 10.9731 15.5563 10.9731C15.3792 10.9731 15.2047 11.0167 15.0484 11.1L12.7661 12.4082L11.2001 13.3391L8.91 14.6516C8.75366 14.7349 8.57922 14.7785 8.40206 14.7785C8.22491 14.7785 8.05047 14.7349 7.89412 14.6516L4.50806 12.7001C4.35309 12.6211 4.22335 12.5002 4.13351 12.3512C4.04368 12.2022 3.99734 12.0311 3.99975 11.8571V7.92112C3.99097 7.74001 4.03936 7.56072 4.13809 7.40862C4.23681 7.25653 4.38087 7.13934 4.54988 7.07363L7.93575 5.127C8.03953 5.07133 8.15179 5.03319 8.268 5.01412Z" fill="#DC3CCC"/>
</svg>
