<svg width="24" height="24" viewBox="0 0 24 24" fill="none" xmlns="http://www.w3.org/2000/svg">
<path fill-rule="evenodd" clip-rule="evenodd" d="M22 17.621C22 16.958 21.6243 16.322 20.9543 15.854C20.6671 15.653 20.3171 15.408 19.98 15.172C18.9086 14.422 17.4543 14 15.9386 14C13.7943 14 10.2057 14 8.06143 14C6.54571 14 5.09143 14.422 4.02 15.172C3.68286 15.408 3.33286 15.653 3.04571 15.854C2.37571 16.322 2 16.958 2 17.621V19.5C2 20.163 2.37571 20.799 3.04571 21.268C3.71571 21.737 4.62429 22 5.57143 22H18.4286C19.3757 22 20.2843 21.737 20.9543 21.268C21.6243 20.799 22 20.163 22 19.5C22 18.849 22 18.123 22 17.621ZM19.1429 17.621V19.5C19.1429 19.633 19.0671 19.76 18.9343 19.854C18.8 19.947 18.6186 20 18.4286 20C15.1357 20 8.86429 20 5.57143 20C5.38143 20 5.2 19.947 5.06571 19.854C4.93286 19.76 4.85714 19.633 4.85714 19.5C4.85714 18.849 4.85714 18.123 4.85714 17.621C4.85714 17.489 4.93286 17.362 5.06571 17.268C5.35286 17.067 5.70286 16.822 6.04 16.586C6.57571 16.211 7.30286 16 8.06143 16H15.9386C16.6971 16 17.4243 16.211 17.96 16.586L18.9343 17.268C19.0671 17.362 19.1429 17.489 19.1429 17.621ZM17.7143 6C17.7143 3.791 15.1557 2 12 2C8.84429 2 6.28571 3.791 6.28571 6V8C6.28571 10.209 8.84429 12 12 12C15.1557 12 17.7143 10.209 17.7143 8V6ZM12 4C10.4214 4 9.14286 4.896 9.14286 6V8C9.14286 9.105 10.4214 10 12 10C13.5786 10 14.8571 9.105 14.8571 8V6C14.8571 4.896 13.5786 4 12 4Z" fill="#CED2DA"/>
</svg>
