<svg width="24" height="24" viewBox="0 0 24 24" fill="none" xmlns="http://www.w3.org/2000/svg">
<path fill-rule="evenodd" clip-rule="evenodd" d="M8.625 3.853C9.335 2.739 10.581 2 12 2C13.419 2 14.665 2.739 15.375 3.853C16.664 3.567 18.068 3.926 19.071 4.929C20.074 5.933 20.433 7.33599 20.147 8.62599C21.261 9.33599 22 10.582 22 12C22 13.419 21.261 14.665 20.147 15.375C20.433 16.665 20.074 18.068 19.071 19.071C18.068 20.075 16.664 20.433 15.375 20.148C14.665 21.262 13.419 22 12 22C10.581 22 9.335 21.262 8.625 20.148C7.335 20.433 5.932 20.075 4.929 19.071C3.926 18.068 3.56701 16.665 3.85201 15.375C2.739 14.665 2 13.419 2 12C2 10.582 2.739 9.33599 3.85201 8.62599C3.56701 7.33599 3.926 5.933 4.929 4.929C5.932 3.926 7.335 3.567 8.625 3.853ZM8.67801 5.98199C8.94001 6.11799 9.249 6.13099 9.522 6.01799C9.795 5.90499 10.004 5.677 10.093 5.396C10.349 4.587 11.106 4 12 4C12.894 4 13.651 4.587 13.907 5.396C13.996 5.677 14.205 5.90499 14.478 6.01799C14.751 6.13099 15.059 6.11799 15.321 5.98199C16.075 5.59099 17.025 5.71099 17.657 6.34399C18.289 6.97599 18.41 7.926 18.019 8.679C17.883 8.941 17.869 9.25 17.982 9.522C18.095 9.795 18.323 10.004 18.604 10.093C19.414 10.349 20 11.106 20 12C20 12.894 19.414 13.652 18.604 13.908C18.323 13.997 18.095 14.206 17.982 14.478C17.869 14.751 17.883 15.06 18.019 15.322C18.41 16.075 18.289 17.025 17.657 17.657C17.025 18.289 16.075 18.41 15.321 18.019C15.059 17.883 14.751 17.87 14.478 17.983C14.205 18.096 13.996 18.324 13.907 18.605C13.651 19.414 12.894 20 12 20C11.106 20 10.349 19.414 10.093 18.605C10.004 18.324 9.795 18.096 9.522 17.983C9.249 17.87 8.94001 17.883 8.67801 18.019C7.92501 18.41 6.975 18.289 6.343 17.657C5.711 17.025 5.59 16.075 5.981 15.322C6.117 15.06 6.13001 14.751 6.01801 14.478C5.90501 14.206 5.677 13.997 5.395 13.908C4.586 13.652 4 12.894 4 12C4 11.106 4.586 10.349 5.395 10.093C5.677 10.004 5.90501 9.795 6.01801 9.522C6.13001 9.25 6.117 8.941 5.981 8.679C5.59 7.926 5.711 6.97599 6.343 6.34399C6.975 5.71099 7.92501 5.59099 8.67801 5.98199ZM12 8C9.792 8 8 9.793 8 12C8 14.208 9.792 16 12 16C14.208 16 16 14.208 16 12C16 9.793 14.208 8 12 8ZM12 10C13.104 10 14 10.897 14 12C14 13.104 13.104 14 12 14C10.896 14 10 13.104 10 12C10 10.897 10.896 10 12 10Z" fill="white"/>
</svg>
