<svg width="24" height="25" viewBox="0 0 24 25" fill="none" xmlns="http://www.w3.org/2000/svg">
<path fill-rule="evenodd" clip-rule="evenodd" d="M12 4.06641C7.58172 4.06641 4 7.70759 4 12.1992C4 16.6908 7.58172 20.332 12 20.332C16.4183 20.332 20 16.6908 20 12.1992C20 7.70759 16.4183 4.06641 12 4.06641ZM2 12.1992C2 6.58468 6.47715 2.0332 12 2.0332C17.5228 2.0332 22 6.58468 22 12.1992C22 17.8138 17.5228 22.3652 12 22.3652C6.47715 22.3652 2 17.8138 2 12.1992Z" fill="#FFFCFC"/>
<path fill-rule="evenodd" clip-rule="evenodd" d="M11.1333 9.65845C10.8568 10.1444 10.2451 10.3105 9.76702 10.0294C9.28896 9.74826 9.1256 9.12637 9.40214 8.64038C9.91934 7.73144 10.8885 7.11621 12.0002 7.11621C13.657 7.11621 15.0002 8.48165 15.0002 10.166C15.0002 11.282 14.3268 12.1931 13.5002 12.7075C12.8362 13.1207 13.2502 14.2324 11.9976 14.2324C11.4453 14.2324 10.9976 13.7773 10.9976 13.2158C10.9976 13.1801 10.9994 13.1449 11.0029 13.1101C11.0306 12.5725 11.2665 12.135 11.5232 11.8169C11.7944 11.481 12.1509 11.2067 12.4235 11.042C13.9402 10.1254 12.0904 8.25013 11.1333 9.65845ZM11.9976 15.249C11.4453 15.249 10.9976 15.7042 10.9976 16.2656C10.9976 16.8271 11.4453 17.2822 11.9976 17.2822C12.5498 17.2822 12.9976 16.8271 12.9976 16.2656C12.9976 15.7042 12.5498 15.249 11.9976 15.249Z" fill="#FFFCFC"/>
</svg>
