<svg width="24" height="24" viewBox="0 0 24 24" fill="none" xmlns="http://www.w3.org/2000/svg">
<path d="M22 5.28721V8.79149C22 9.47057 21.4404 10.0211 20.75 10.0211H17.1875C16.4972 10.0211 15.9375 9.47057 15.9375 8.79149C15.9375 8.11241 16.4972 7.56191 17.1875 7.56191H18.1426C16.7623 5.61589 14.5003 4.42646 12 4.42646C8.8891 4.42646 6.14656 6.2675 5.01305 9.11668C4.76141 9.74907 4.03625 10.061 3.39344 9.81359C2.75055 9.56609 2.43336 8.85282 2.68496 8.22046C3.40992 6.39825 4.65945 4.84271 6.29848 3.72198C7.97727 2.57405 9.94879 1.96729 12 1.96729C14.0512 1.96729 16.0227 2.57405 17.7015 3.72194C18.3686 4.17804 18.9711 4.70623 19.5 5.29505V5.28725C19.5 4.60817 20.0596 4.05766 20.75 4.05766C21.4404 4.05766 22 4.60813 22 5.28721ZM20.6066 13.7944C19.9637 13.5469 19.2386 13.859 18.987 14.4913C17.8534 17.3405 15.1109 19.1815 12 19.1815C9.55285 19.1815 7.33383 18.0421 5.94648 16.169H6.81246C7.50281 16.169 8.06246 15.6185 8.06246 14.9394C8.06246 14.2603 7.50281 13.7098 6.81246 13.7098H3.25C2.55965 13.7098 2 14.2603 2 14.9394V18.4437C2 19.1228 2.55965 19.6733 3.25 19.6733C3.94035 19.6733 4.5 19.1228 4.5 18.4437V18.313C5.02891 18.9018 5.63145 19.4299 6.29848 19.886C7.97727 21.0339 9.94879 21.6407 12 21.6407C14.0512 21.6407 16.0227 21.0339 17.7015 19.886C19.3405 18.7653 20.5901 17.2097 21.315 15.3875C21.5666 14.7552 21.2495 14.0419 20.6066 13.7944Z" fill="#CED2DA"/>
</svg>
