<svg width="35" height="34" viewBox="0 0 35 34" fill="none" xmlns="http://www.w3.org/2000/svg">
<rect width="35" height="34" rx="8.32639" fill="url(#paint0_linear_411_6310)"/>
<path d="M23 7H11C9.34 7 8 8.33 8 9.97V20.88C8 22.52 9.34 23.85 11 23.85H11.76C12.56 23.85 13.32 24.16 13.88 24.72L15.59 26.41C16.37 27.18 17.64 27.18 18.42 26.41L20.13 24.72C20.69 24.16 21.46 23.85 22.25 23.85H23C24.66 23.85 26 22.52 26 20.88V9.97C26 8.33 24.66 7 23 7ZM17 10.75C18.29 10.75 19.33 11.79 19.33 13.08C19.33 14.37 18.29 15.41 17 15.41C15.71 15.41 14.67 14.36 14.67 13.08C14.67 11.79 15.71 10.75 17 10.75ZM19.68 20.06H14.32C13.51 20.06 13.04 19.16 13.49 18.49C14.17 17.48 15.49 16.8 17 16.8C18.51 16.8 19.83 17.48 20.51 18.49C20.96 19.16 20.48 20.06 19.68 20.06Z" fill="white"/>
<defs>
<linearGradient id="paint0_linear_411_6310" x1="0" y1="17" x2="35" y2="17" gradientUnits="userSpaceOnUse">
<stop stop-color="#1DA1F2"/>
<stop offset="1" stop-color="#009FFC"/>
</linearGradient>
</defs>
</svg>
