<svg width="35" height="36" viewBox="0 0 35 36" fill="none" xmlns="http://www.w3.org/2000/svg">
<rect y="0.928711" width="35" height="35" rx="8.32639" fill="url(#paint0_linear_411_6269)"/>
<path d="M16.9054 9.95508H11.4541C9.71289 9.95508 8.83789 10.8667 8.83789 12.681V27.1051H13.5629V23.7202C13.5629 23.3501 13.8604 23.0432 14.2191 23.0432C14.5779 23.0432 14.8754 23.3411 14.8754 23.7202V27.1051H19.5129V12.681C19.5129 10.8667 18.6466 9.95508 16.9054 9.95508ZM16.4066 18.7557H12.0754C11.7166 18.7557 11.4191 18.4488 11.4191 18.0788C11.4191 17.7087 11.7166 17.4018 12.0754 17.4018H16.4066C16.7654 17.4018 17.0629 17.7087 17.0629 18.0788C17.0629 18.4488 16.7654 18.7557 16.4066 18.7557ZM16.4066 15.3709H12.0754C11.7166 15.3709 11.4191 15.064 11.4191 14.6939C11.4191 14.3238 11.7166 14.0169 12.0754 14.0169H16.4066C16.7654 14.0169 17.0629 14.3238 17.0629 14.6939C17.0629 15.064 16.7654 15.3709 16.4066 15.3709Z" fill="white"/>
<path d="M27.125 26.4282H25.1388V23.7203C25.97 23.4405 26.5738 22.6371 26.5738 21.6894V19.8841C26.5738 18.7017 25.6375 17.7358 24.4912 17.7358C23.345 17.7358 22.4088 18.7017 22.4088 19.8841V21.6894C22.4088 22.6281 23.0037 23.4224 23.8175 23.7113V26.4282H7.875C7.51625 26.4282 7.21875 26.7351 7.21875 27.1052C7.21875 27.4752 7.51625 27.7821 7.875 27.7821H24.4388C24.4563 27.7821 24.465 27.7912 24.4825 27.7912C24.5 27.7912 24.5088 27.7821 24.5263 27.7821H27.125C27.4837 27.7821 27.7812 27.4752 27.7812 27.1052C27.7812 26.7351 27.4837 26.4282 27.125 26.4282Z" fill="white"/>
<defs>
<linearGradient id="paint0_linear_411_6269" x1="0" y1="18.4287" x2="35" y2="18.4287" gradientUnits="userSpaceOnUse">
<stop stop-color="#4E54C8"/>
<stop offset="1" stop-color="#8F94FB"/>
</linearGradient>
</defs>
</svg>
