<svg width="35" height="34" viewBox="0 0 35 34" fill="none" xmlns="http://www.w3.org/2000/svg">
<rect width="35" height="33.9286" rx="8.32639" fill="url(#paint0_linear_411_6297)"/>
<path d="M22 17.6899V23.0799C22 25.4199 20.44 26.9699 18.11 26.9699H11.89C9.56 26.9699 8 25.4199 8 23.0799V15.3099C8 12.9699 9.56 11.4199 11.89 11.4199H15.72C16.75 11.4199 17.74 11.8299 18.47 12.5599L20.86 14.9399C21.59 15.6699 22 16.6599 22 17.6899Z" fill="white"/>
<path d="M27.9995 13.2497V18.6397C27.9995 20.9697 26.4395 22.5297 24.1095 22.5297H22.9995V17.6897C22.9995 16.3997 22.4795 15.1397 21.5695 14.2297L19.1795 11.8497C18.2695 10.9397 17.0095 10.4197 15.7195 10.4197H14.0195C14.1995 8.33973 15.7095 6.96973 17.8895 6.96973H21.7195C22.7495 6.96973 23.7395 7.37973 24.4695 8.10973L26.8595 10.4997C27.5895 11.2297 27.9995 12.2197 27.9995 13.2497Z" fill="white"/>
<defs>
<linearGradient id="paint0_linear_411_6297" x1="0" y1="16.9643" x2="35" y2="16.9643" gradientUnits="userSpaceOnUse">
<stop stop-color="#F953C6"/>
<stop offset="1" stop-color="#B91D73"/>
</linearGradient>
</defs>
</svg>
