<svg width="35" height="36" viewBox="0 0 35 36" fill="none" xmlns="http://www.w3.org/2000/svg">
<rect y="0.928711" width="35" height="35" rx="8.32639" fill="url(#paint0_linear_411_6282)"/>
<path d="M12.25 11.8686C11.8913 11.8686 11.5938 11.5617 11.5938 11.1916V9.61203C11.5938 9.24195 11.8913 8.93506 12.25 8.93506C12.6087 8.93506 12.9062 9.24195 12.9062 9.61203V11.1916C12.9062 11.5707 12.6087 11.8686 12.25 11.8686Z" fill="white"/>
<path d="M15.75 11.8686C15.3913 11.8686 15.0938 11.5617 15.0938 11.1916V9.61203C15.0938 9.24195 15.3913 8.93506 15.75 8.93506C16.1087 8.93506 16.4062 9.24195 16.4062 9.61203V11.1916C16.4062 11.5707 16.1087 11.8686 15.75 11.8686Z" fill="white"/>
<path d="M19.25 11.8686C18.8913 11.8686 18.5938 11.5617 18.5938 11.1916V9.61203C18.5938 9.24195 18.8913 8.93506 19.25 8.93506C19.6087 8.93506 19.9062 9.24195 19.9062 9.61203V11.1916C19.9062 11.5707 19.6087 11.8686 19.25 11.8686Z" fill="white"/>
<path d="M26.4688 19.2069C26.4688 16.842 24.6925 14.9284 22.4525 14.7298C21.805 13.6376 20.65 12.8975 19.32 12.8975H12.8713C10.8413 12.8975 9.1875 14.6034 9.1875 16.6975V17.1759H23.0038V16.6975C23.0038 16.526 22.9775 16.3545 22.9513 16.1921C24.22 16.5802 25.1562 17.7717 25.1562 19.2069C25.1562 20.624 24.2463 21.8064 23.0038 22.2036V18.0786H9.1875V23.3048C9.1875 25.3989 10.8413 27.1049 12.8713 27.1049H19.32C21.245 27.1049 22.8112 25.5704 22.9688 23.6207C24.9637 23.2055 26.4688 21.3822 26.4688 19.2069Z" fill="white"/>
<defs>
<linearGradient id="paint0_linear_411_6282" x1="0" y1="18.4287" x2="35" y2="18.4287" gradientUnits="userSpaceOnUse">
<stop stop-color="#EB3349"/>
<stop offset="1" stop-color="#F45C43"/>
</linearGradient>
</defs>
</svg>
