<svg width="24" height="24" viewBox="0 0 24 24" fill="none" xmlns="http://www.w3.org/2000/svg">
<path fill-rule="evenodd" clip-rule="evenodd" d="M14.5882 3.34074C12.8926 2.88642 11.1074 2.88642 9.41181 3.34074C8.87834 3.48368 8.33001 3.1671 8.18707 2.63363C8.04412 2.10017 8.36071 1.55183 8.89417 1.40889C10.9288 0.863703 13.0712 0.863703 15.1058 1.40889C15.6393 1.55183 15.9559 2.10017 15.8129 2.63363C15.67 3.1671 15.1217 3.48368 14.5882 3.34074ZM17.856 3.6348C18.19 3.19496 18.8173 3.10916 19.2572 3.44316C20.5284 4.40847 21.5942 5.61768 22.3923 7C22.6684 7.47829 22.5046 8.08988 22.0263 8.36602C21.548 8.64217 20.9364 8.47829 20.6603 8C19.9952 6.84806 19.107 5.84039 18.0477 5.03597C17.6078 4.70196 17.522 4.07464 17.856 3.6348ZM12 6C8.13401 6 5 9.13401 5 13C5 16.866 8.13401 20 12 20C15.866 20 19 16.866 19 13C19 9.13401 15.866 6 12 6ZM3 13C3 8.02944 7.02944 4 12 4C16.9706 4 21 8.02944 21 13C21 17.9706 16.9706 22 12 22C7.02944 22 3 17.9706 3 13ZM8.46447 9.46447C8.85499 9.07394 9.48816 9.07394 9.87868 9.46447L12 11.5858L14.1213 9.46447C14.5118 9.07394 15.145 9.07394 15.5355 9.46447C15.9261 9.85499 15.9261 10.4882 15.5355 10.8787L13.4142 13L15.5355 15.1213C15.9261 15.5118 15.9261 16.145 15.5355 16.5355C15.145 16.9261 14.5118 16.9261 14.1213 16.5355L12 14.4142L9.87868 16.5355C9.48815 16.9261 8.85499 16.9261 8.46447 16.5355C8.07394 16.145 8.07394 15.5118 8.46447 15.1213L10.5858 13L8.46447 10.8787C8.07394 10.4882 8.07394 9.85499 8.46447 9.46447Z" fill="white"/>
</svg>
