<svg width="24" height="24" viewBox="0 0 24 24" fill="none" xmlns="http://www.w3.org/2000/svg">
<circle cx="12.0016" cy="12.0001" r="8.4" fill="white"/>
<path d="M11.1008 7.0166C9.97758 7.3238 9.30078 8.1866 9.30078 9.0002C9.30078 9.8138 9.97758 10.6766 11.1008 10.9826V7.0166ZM12.9008 13.0178V16.9826C14.024 16.6766 14.7008 15.8138 14.7008 15.0002C14.7008 14.1866 14.024 13.3238 12.9008 13.0178Z" fill="#F04570"/>
<path fill-rule="evenodd" clip-rule="evenodd" d="M24 12C24 18.6276 18.6276 24 12 24C5.3724 24 0 18.6276 0 12C0 5.3724 5.3724 0 12 0C18.6276 0 24 5.3724 24 12ZM12 3.9C12.2387 3.9 12.4676 3.99482 12.6364 4.1636C12.8052 4.33239 12.9 4.56131 12.9 4.8V5.1804C14.856 5.5308 16.5 7.0008 16.5 9C16.5 9.2387 16.4052 9.46761 16.2364 9.6364C16.0676 9.80518 15.8387 9.9 15.6 9.9C15.3613 9.9 15.1324 9.80518 14.9636 9.6364C14.7948 9.46761 14.7 9.2387 14.7 9C14.7 8.1864 14.0232 7.3236 12.9 7.0164V11.1804C14.856 11.5308 16.5 13.0008 16.5 15C16.5 16.9992 14.856 18.4692 12.9 18.8196V19.2C12.9 19.4387 12.8052 19.6676 12.6364 19.8364C12.4676 20.0052 12.2387 20.1 12 20.1C11.7613 20.1 11.5324 20.0052 11.3636 19.8364C11.1948 19.6676 11.1 19.4387 11.1 19.2V18.8196C9.144 18.4692 7.5 16.9992 7.5 15C7.5 14.7613 7.59482 14.5324 7.7636 14.3636C7.93239 14.1948 8.16131 14.1 8.4 14.1C8.63869 14.1 8.86761 14.1948 9.0364 14.3636C9.20518 14.5324 9.3 14.7613 9.3 15C9.3 15.8136 9.9768 16.6764 11.1 16.9824V12.8196C9.144 12.4692 7.5 10.9992 7.5 9C7.5 7.0008 9.144 5.5308 11.1 5.1804V4.8C11.1 4.56131 11.1948 4.33239 11.3636 4.1636C11.5324 3.99482 11.7613 3.9 12 3.9Z" fill="#F04570"/>
</svg>
